<?xml version="1.0" standalone="no"?>
<!DOCTYPE svg PUBLIC "-//W3C//DTD SVG 20010904//EN"
 "http://www.w3.org/TR/2001/REC-SVG-20010904/DTD/svg10.dtd">
<svg version="1.0" xmlns="http://www.w3.org/2000/svg"
 width="1000.000000pt" height="734.000000pt" viewBox="0 0 1000.000000 734.000000"
 preserveAspectRatio="xMidYMid meet">

<g transform="translate(0.000000,734.000000) scale(0.100000,-0.100000)"
fill="#000000" stroke="none">
<path d="M0 3670 l0 -3670 278 0 279 0 7 322 c5 178 11 345 14 372 l7 49 45
-38 c83 -69 334 -229 465 -296 307 -157 648 -258 975 -288 163 -15 649 -35
657 -27 19 18 -34 25 -277 35 -319 14 -451 25 -590 52 -271 52 -463 116 -705
234 -190 93 -295 157 -462 281 -104 77 -113 87 -113 116 0 120 61 1082 86
1363 23 266 73 768 89 900 8 66 15 123 15 127 0 4 26 8 58 8 l57 -1 34 -49
c101 -150 342 -316 576 -398 71 -25 187 -53 194 -47 2 3 -2 31 -10 62 -23 95
-16 243 16 341 14 46 24 86 21 89 -14 14 -36 -11 -54 -64 -11 -32 -21 -48 -21
-36 -1 27 -19 39 -34 24 -8 -8 -8 -26 2 -69 7 -31 14 -95 16 -142 1 -47 6
-102 10 -123 7 -38 7 -38 -21 -31 -69 16 -196 65 -279 107 -86 43 -234 144
-264 180 -17 21 -7 96 19 148 30 57 55 68 151 66 80 -2 88 0 169 39 47 23 92
44 101 47 12 4 19 23 23 64 12 100 -17 198 -80 273 l-28 32 25 19 c64 52 169
86 191 63 4 -3 -1 -30 -9 -60 -11 -37 -13 -58 -6 -65 7 -7 18 20 33 78 13 48
30 96 38 106 17 20 53 21 155 7 135 -20 137 -22 112 -106 l-15 -54 38 -38 c63
-63 72 -125 24 -151 -15 -8 -23 -7 -32 4 -16 20 -90 20 -90 1 0 -17 22 -26 65
-26 39 0 51 -22 36 -64 -9 -23 -7 -27 18 -41 25 -13 37 -13 97 0 93 20 164 19
227 -4 62 -21 107 -52 230 -159 166 -143 215 -180 298 -223 125 -67 179 -132
179 -216 0 -14 14 -32 40 -50 22 -16 44 -42 50 -59 23 -67 119 -76 282 -26
134 42 157 40 177 -12 l15 -39 -53 -49 c-35 -32 -91 -66 -160 -99 -170 -81
-173 -82 -220 -121 -51 -43 -100 -68 -129 -68 -22 0 -59 32 -114 99 -34 40
-42 45 -73 42 -39 -3 -59 9 -85 52 -15 25 -25 29 -73 32 -107 6 -176 56 -267
190 -26 38 -67 89 -91 113 -44 44 -99 80 -99 64 0 -5 15 -40 34 -78 63 -126
68 -232 17 -333 -11 -21 -18 -47 -15 -58 5 -19 10 -16 47 24 22 24 54 51 69
59 69 36 190 6 214 -52 8 -18 14 -41 14 -50 0 -16 -2 -16 -20 1 -28 25 -109
31 -147 11 -17 -8 -55 -43 -85 -77 -117 -135 -145 -163 -203 -202 -153 -102
-179 -141 -104 -153 l40 -7 -6 -51 c-30 -276 -77 -715 -86 -813 l-12 -122 52
-57 c112 -123 137 -181 128 -301 l-6 -74 37 -23 c64 -39 218 -97 362 -134 41
-11 82 -23 90 -26 11 -4 19 2 27 21 7 16 18 35 25 45 10 13 6 27 -22 80 -32
59 -35 70 -38 174 -7 200 42 313 161 375 21 11 114 40 205 64 273 71 586 183
779 278 l68 33 53 104 c117 232 160 441 181 895 9 193 22 246 72 296 20 20 21
26 11 66 -18 67 -16 68 41 19 30 -25 71 -53 91 -61 29 -12 36 -20 31 -33 -4
-9 -10 -62 -13 -117 -2 -55 -9 -103 -14 -106 -6 -4 -30 -4 -54 -1 l-44 5 0
-52 c0 -28 0 -54 0 -58 0 -5 30 -10 67 -13 56 -4 68 -8 71 -24 4 -17 0 -18
-29 -12 -19 4 -53 9 -75 13 l-42 5 -4 -48 c-2 -27 -1 -51 4 -55 4 -3 70 -11
145 -18 233 -21 232 -20 58 -74 -235 -74 -228 -71 -236 -98 -3 -14 -9 -51 -13
-82 -6 -43 -4 -58 6 -61 7 -3 61 -8 121 -11 59 -4 107 -10 107 -14 0 -3 -57
-26 -127 -50 -71 -24 -131 -46 -136 -50 -6 -6 -47 -140 -47 -155 0 -3 24 -6
53 -8 l52 -3 -60 -15 c-59 -15 -59 -15 -81 -72 -12 -31 -20 -59 -17 -62 5 -5
53 9 88 25 11 5 92 27 180 50 128 33 171 40 215 35 62 -6 257 -54 349 -86 33
-12 70 -19 81 -15 23 7 80 53 80 64 0 4 -60 25 -132 46 -73 21 -137 41 -141
45 -4 3 66 17 155 29 90 12 174 25 187 29 20 6 30 23 53 86 30 81 28 94 -12
97 -8 0 -22 2 -30 4 -8 2 -66 13 -129 24 -63 12 -116 23 -118 25 -5 5 272 85
348 100 23 5 29 16 52 97 15 51 24 96 21 100 -3 5 -29 9 -57 9 -29 0 -77 3
-107 7 l-54 6 54 18 c30 10 85 25 122 35 67 16 68 17 78 58 6 22 13 49 16 59
6 21 -4 21 -53 2 -21 -8 -92 -31 -158 -51 -66 -20 -164 -49 -218 -66 -118 -35
-149 -31 -91 12 21 16 48 43 59 59 13 20 31 33 50 35 70 11 335 36 373 36 47
0 56 12 68 92 7 40 7 41 -19 34 -23 -5 -150 -21 -343 -41 l-61 -7 -9 169 c-4
92 -8 190 -8 218 l-1 50 145 43 c171 50 263 59 286 27 22 -29 43 -107 61 -223
13 -84 18 -100 29 -91 19 16 17 77 -5 185 -22 109 -41 148 -84 175 -45 28
-112 17 -402 -67 -25 -8 54 75 107 112 39 28 149 57 256 69 145 16 254 -34
286 -133 12 -38 36 -178 36 -212 0 -5 39 5 87 21 48 16 157 45 243 64 211 47
289 70 404 120 l38 16 -6 62 c-9 83 -34 184 -57 229 -37 74 -159 117 -396 142
-74 8 -136 16 -138 17 -2 2 -82 79 -177 170 -95 92 -185 177 -201 190 -25 22
-28 32 -34 115 l-6 92 -38 21 c-21 12 -46 32 -54 44 -8 12 -19 21 -23 19 -4
-2 -11 12 -17 31 -7 23 -30 50 -71 85 -115 95 -144 208 -84 328 48 97 114 155
402 351 l88 60 53 -18 c121 -41 219 31 232 169 9 94 13 112 32 119 30 12 48
-12 55 -75 11 -102 53 -163 138 -201 90 -41 225 -17 287 50 29 32 65 114 62
142 -3 26 11 127 17 127 3 0 47 -30 99 -67 85 -59 95 -69 95 -97 0 -47 -37
-170 -70 -236 l-30 -59 27 -53 c23 -45 27 -65 27 -133 0 -69 2 -82 20 -96 21
-17 20 -17 -19 -24 -125 -21 -285 -73 -285 -92 0 -25 24 -32 53 -16 45 23 150
51 219 59 33 4 62 12 65 19 2 7 30 16 61 19 127 15 128 1 -10 148 l-122 130
18 26 c35 54 49 99 54 170 2 39 7 72 9 72 7 0 219 -166 388 -304 264 -216 375
-332 375 -394 0 -53 -53 -110 -188 -201 -51 -34 -223 -119 -294 -144 -10 -3
-22 -25 -28 -49 -6 -24 -17 -58 -25 -75 -14 -32 -14 -33 27 -65 54 -44 179
-195 276 -334 l79 -113 -3 -63 c-8 -143 -52 -249 -172 -416 -124 -170 -127
-177 -127 -307 0 -83 6 -132 23 -200 39 -148 53 -188 64 -177 7 7 3 31 -10 74
-35 108 -55 220 -56 308 -1 76 2 91 30 146 17 34 58 97 91 140 112 147 157
243 177 374 l12 75 53 -95 c88 -159 121 -243 155 -392 4 -17 13 -28 23 -28 50
0 157 -175 219 -360 23 -69 28 -103 29 -180 0 -89 -2 -99 -34 -160 -44 -83
-223 -262 -531 -530 -123 -107 -332 -289 -464 -405 -373 -327 -420 -367 -593
-512 l-163 -136 8 -56 c19 -150 0 -313 -46 -384 -82 -125 -272 -111 -326 24
-9 22 -25 94 -36 160 -45 275 -97 404 -184 451 -46 25 -56 22 -15 -6 66 -45
74 -80 74 -330 l0 -219 -130 -67 c-71 -36 -175 -84 -230 -106 l-99 -39 924 -3
c508 -1 925 0 928 3 17 16 -68 68 -130 79 -33 6 -38 11 -38 33 0 15 -5 40 -11
57 -9 27 -5 46 36 151 26 66 64 171 85 233 22 62 42 118 46 124 10 15 22 -17
23 -59 2 -68 184 -611 209 -620 24 -10 23 5 -9 83 -52 132 -146 424 -164 509
-33 160 22 307 126 335 48 13 135 -5 162 -34 11 -11 39 -56 64 -99 24 -44 46
-77 48 -75 3 2 -7 31 -20 64 -28 67 -32 121 -11 149 13 18 15 16 26 -25 26
-98 116 -228 140 -204 8 8 -2 26 -29 59 -48 59 -84 148 -79 201 3 33 8 42 40
59 48 26 60 15 93 -88 31 -96 67 -139 135 -162 26 -9 58 -27 71 -41 20 -22 24
-35 23 -90 l-1 -64 36 0 c44 0 111 18 111 30 0 4 24 23 53 40 28 18 65 43 80
56 16 13 39 24 53 24 27 0 58 39 49 62 -3 9 4 34 15 57 17 31 28 41 46 41 44
0 32 -39 -53 -178 l-45 -73 25 -67 c13 -37 53 -130 86 -206 77 -173 111 -272
111 -325 l0 -41 855 0 855 0 0 3670 0 3670 -5000 0 -5000 0 0 -3670z m6231
2191 c108 -28 229 -103 229 -142 0 -11 -11 -37 -25 -57 -14 -20 -25 -40 -25
-44 0 -4 18 -17 40 -28 55 -28 145 -120 174 -179 28 -55 50 -133 43 -153 -2
-8 -45 27 -110 91 l-106 104 -360 -6 c-197 -3 -362 -3 -365 0 -16 17 99 137
157 164 21 9 25 20 30 75 16 167 121 225 318 175z m-4691 -1321 c7 -16 31 -47
54 -67 50 -45 65 -73 55 -98 -4 -11 -8 -46 -8 -77 -1 -56 -17 -88 -45 -88 -7
0 -27 -16 -46 -35 -19 -19 -39 -35 -44 -34 -6 0 -24 21 -41 47 -19 30 -45 53
-72 67 -47 22 -52 39 -27 87 11 21 15 50 12 92 l-3 61 39 10 c21 5 51 22 65
37 34 35 46 35 61 -2z m2480 -266 c0 -18 -4 -36 -10 -39 -6 -4 -10 10 -10 35
0 23 -5 51 -11 63 -10 21 -9 21 10 -2 12 -13 21 -37 21 -57z m115 -35 c11 -20
15 -63 15 -153 0 -116 2 -127 23 -152 20 -23 35 -28 110 -37 l86 -11 16 -39
c33 -81 10 -235 -32 -224 -10 3 -63 8 -118 12 l-100 6 -27 -89 c-22 -70 -35
-96 -59 -116 -17 -15 -33 -26 -34 -24 -1 2 4 98 11 213 13 204 22 270 63 462
22 105 15 161 -21 171 -28 7 -3 20 28 14 14 -2 31 -17 39 -33z m-2714 -171
c28 -52 0 -193 -82 -413 -13 -33 -30 -91 -39 -130 -13 -57 -20 -71 -37 -73
-11 -2 -23 4 -26 12 -9 22 24 143 67 254 47 119 66 201 66 283 0 82 25 115 51
67z m245 -30 c35 -31 81 -94 86 -119 5 -21 -53 -17 -64 5 -6 11 -31 41 -56 68
-67 72 -40 110 34 46z m2041 -836 c19 -15 52 -42 74 -59 22 -18 58 -38 80 -44
37 -12 45 -10 108 20 77 38 87 36 139 -23 29 -33 52 -89 52 -127 0 -9 -27 -37
-60 -63 -73 -56 -85 -82 -71 -153 11 -57 0 -117 -23 -126 -11 -4 -20 14 -36
66 -29 98 -82 202 -132 262 -22 28 -70 95 -106 149 -45 68 -75 103 -94 110
-15 6 -28 14 -28 19 0 17 63 -3 97 -31z m1306 -1051 c93 -11 171 -21 173 -23
2 -3 -58 -22 -134 -43 -75 -21 -200 -58 -277 -83 l-140 -45 -173 19 c-94 10
-169 21 -165 25 8 7 30 14 303 99 91 28 174 55 185 60 29 12 41 12 228 -9z
m3773 -263 c33 -15 31 -46 -3 -59 -16 -6 -68 -12 -118 -12 l-90 -2 2 25 c8 75
5 73 99 66 47 -4 97 -12 110 -18z m-243 -20 c-3 -18 -9 -37 -13 -41 -11 -12
-61 3 -67 21 -8 19 32 52 63 52 21 0 23 -3 17 -32z m-3708 -43 c83 -14 166
-29 185 -34 39 -9 68 -2 -265 -57 -82 -14 -175 -31 -206 -38 -46 -10 -74 -10
-155 0 -55 7 -108 13 -118 14 -13 0 -16 3 -10 9 18 18 349 130 384 131 20 0
103 -11 185 -25z m3652 -36 c9 -9 8 -19 -4 -42 -12 -23 -15 -62 -15 -165 1
-148 7 -167 65 -202 43 -26 157 -28 207 -2 60 29 71 67 68 219 -2 89 -7 136
-15 145 -12 11 -18 48 -9 48 2 0 11 3 19 6 29 11 47 -66 47 -204 0 -140 -8
-183 -42 -220 -41 -43 -74 -54 -169 -54 -99 0 -148 17 -183 65 -36 49 -40 361
-5 403 14 17 22 17 36 3z m180 -59 c6 -21 6 -21 26 0 18 20 21 20 35 6 15 -15
15 -18 -5 -37 -14 -14 -26 -18 -34 -13 -8 5 -23 10 -34 11 -27 5 -39 19 -32
37 9 23 38 20 44 -4z m63 -85 c17 -21 8 -50 -17 -53 -24 -4 -48 30 -39 54 7
18 40 18 56 -1z m-72 -117 c-2 -13 -16 -29 -33 -38 -21 -11 -30 -22 -30 -40 0
-21 -5 -25 -30 -25 -24 0 -31 5 -33 23 -2 12 3 24 11 28 9 3 13 13 10 25 -6
23 21 36 41 20 11 -9 15 -7 19 9 8 30 49 28 45 -2z m-631 -38 c58 -33 79 -60
61 -78 -17 -17 -25 -15 -61 12 -18 13 -49 31 -69 40 -21 8 -38 21 -38 29 0 37
39 36 107 -3z m115 -107 c22 -20 23 -36 3 -53 -27 -23 -73 38 -48 63 11 11 25
8 45 -10z m-364 -184 c30 -10 30 -12 25 -62 -4 -43 -1 -57 17 -79 26 -33 44
-35 63 -8 13 18 15 19 21 5 10 -27 -12 -55 -43 -55 -36 0 -118 54 -142 94 -10
17 -19 48 -19 68 0 35 5 40 41 47 3 0 20 -4 37 -10z m420 -51 c-2 -35 -10 -50
-45 -85 -69 -69 -108 -56 -73 24 l21 48 18 -24 c12 -16 24 -22 35 -18 20 8 39
55 33 79 -3 10 -1 18 4 18 6 0 9 -19 7 -42z"/>
<path d="M1413 4399 c4 -46 13 -72 34 -103 58 -82 113 -78 152 13 26 62 28
101 3 101 -11 0 -26 -17 -40 -46 -27 -56 -50 -56 -75 1 -35 78 -43 90 -61 93
-17 4 -18 -1 -13 -59z"/>
<path d="M5863 4983 c-7 -2 -13 -11 -13 -19 0 -11 18 -14 85 -14 66 0 85 3 85
14 0 7 -10 16 -22 20 -27 7 -118 7 -135 -1z"/>
<path d="M6242 4767 c-10 -12 -52 -103 -52 -113 0 -2 4 -4 8 -4 5 0 14 19 21
42 7 22 19 48 27 55 13 13 19 33 10 33 -2 0 -8 -6 -14 -13z"/>
<path d="M6176 4615 c-9 -35 -1 -43 14 -15 8 14 8 26 2 32 -6 6 -12 0 -16 -17z"/>
<path d="M5334 4609 c-9 -16 6 -26 52 -34 30 -4 44 -2 53 9 10 12 6 16 -26 25
-49 14 -70 14 -79 0z"/>
<path d="M5485 4580 c-3 -5 -2 -10 4 -10 5 0 13 5 16 10 3 6 2 10 -4 10 -5 0
-13 -4 -16 -10z"/>
<path d="M6126 4535 c-16 -19 -33 -35 -38 -35 -30 0 -253 -194 -242 -211 3 -5
15 3 27 18 12 15 24 30 28 33 3 3 21 17 40 32 19 15 48 38 65 50 104 77 134
101 148 123 24 37 5 30 -28 -10z"/>
<path d="M5453 4541 c-66 -73 -106 -157 -148 -311 -5 -16 -4 -21 2 -15 5 6 17
39 27 75 23 85 72 182 117 231 20 21 32 39 27 39 -4 0 -16 -9 -25 -19z"/>
<path d="M6857 4503 c-4 -3 -7 -16 -6 -27 0 -19 1 -19 10 3 10 24 8 36 -4 24z"/>
<path d="M6950 4447 c0 -7 18 -31 40 -52 31 -30 43 -36 52 -27 9 9 3 21 -27
52 -39 40 -65 51 -65 27z"/>
<path d="M6841 4434 c0 -11 3 -14 6 -6 3 7 2 16 -1 19 -3 4 -6 -2 -5 -13z"/>
<path d="M6815 4374 c-4 -16 -11 -42 -15 -59 -5 -16 -16 -81 -26 -143 -18
-120 -10 -206 23 -262 9 -17 12 -18 8 -5 -36 111 -34 231 6 398 11 49 18 91
15 94 -3 3 -8 -8 -11 -23z"/>
<path d="M5830 4275 c0 -12 -18 -131 -26 -166 -4 -19 0 -28 12 -33 13 -5 15
-2 11 13 -3 11 1 55 9 98 8 50 10 81 4 87 -6 6 -10 6 -10 1z"/>
<path d="M5910 4270 c0 -5 5 -10 10 -10 6 0 10 5 10 10 0 6 -4 10 -10 10 -5 0
-10 -4 -10 -10z"/>
<path d="M5902 4223 c1 -15 1 -52 0 -80 -2 -52 -3 -53 -32 -53 -16 0 -30 -4
-30 -10 0 -11 37 -12 60 -2 19 9 28 156 11 166 -7 5 -11 -2 -9 -21z"/>
<path d="M5301 4184 c0 -11 3 -14 6 -6 3 7 2 16 -1 19 -3 4 -6 -2 -5 -13z"/>
<path d="M6883 4030 c-17 -7 -21 -16 -19 -37 2 -15 4 -36 5 -45 3 -47 51 21
51 72 0 22 -4 23 -37 10z"/>
<path d="M6585 3865 c-60 -8 -116 -14 -122 -14 -7 -1 -13 -10 -13 -21 0 -16 7
-20 33 -20 l32 -1 -33 -27 c-31 -26 -44 -62 -21 -62 6 0 40 23 77 50 69 52 98
63 89 33 -45 -142 -59 -208 -77 -366 -11 -99 -27 -212 -35 -250 -8 -39 -13
-72 -12 -74 6 -6 111 71 147 109 22 22 50 63 64 91 65 138 95 451 51 527 -25
42 -32 43 -180 25z"/>
<path d="M1616 3542 c-10 -16 15 -29 71 -36 52 -7 76 5 56 25 -15 15 -119 24
-127 11z"/>
<path d="M2202 3177 c-22 -26 -35 -111 -25 -153 12 -45 14 -40 39 69 11 52 14
81 7 88 -7 7 -14 5 -21 -4z"/>
<path d="M5724 2572 c-16 -10 -34 -48 -34 -70 0 -12 11 -24 29 -31 15 -7 44
-29 64 -49 57 -59 73 -110 113 -369 2 -17 12 -34 20 -37 22 -9 103 50 110 80
4 14 -1 74 -10 132 -19 123 -55 209 -114 267 -51 51 -151 94 -178 77z"/>
<path d="M5523 1688 c-17 -21 -63 -143 -63 -167 0 -54 55 -29 92 42 35 69 10
174 -29 125z"/>
<path d="M920 1427 c-42 -15 -80 -75 -80 -128 l0 -36 75 -16 c42 -10 83 -17
93 -17 15 0 17 -11 17 -78 0 -126 48 -218 90 -175 25 24 16 152 -14 211 l-21
42 35 0 c43 0 45 14 11 85 -26 56 -67 98 -109 114 -35 14 -53 13 -97 -2z"/>
<path d="M726 1128 c-42 -24 -7 -67 76 -93 l43 -14 -45 0 c-26 -1 -51 -6 -58
-13 -20 -20 -14 -48 12 -59 32 -15 160 -2 152 14 -3 7 -16 38 -29 70 -29 70
-26 66 -85 87 -33 12 -55 14 -66 8z"/>
<path d="M5501 945 c3 -14 22 -23 69 -35 175 -43 237 -155 255 -460 8 -153 14
-190 31 -197 8 -3 17 -3 20 -1 8 9 -17 329 -31 400 -36 175 -145 287 -297 305
-45 5 -50 4 -47 -12z"/>
<path d="M7240 612 c0 -10 22 -81 49 -156 l49 -138 -30 -95 c-21 -68 -26 -99
-19 -106 17 -17 25 -1 70 143 23 74 47 148 52 164 13 41 11 66 -5 66 -8 0 -21
-21 -31 -50 -9 -27 -18 -50 -20 -50 -1 0 -22 54 -45 120 -26 75 -48 120 -56
120 -8 0 -14 -8 -14 -18z"/>
<path d="M7451 611 c-7 -5 -11 -15 -9 -22 3 -10 25 -13 89 -10 84 3 107 10 95
30 -8 13 -155 15 -175 2z"/>
<path d="M7876 432 c-10 -16 86 -407 105 -426 6 -6 13 -6 19 0 7 7 -2 58 -29
160 -22 82 -45 176 -53 208 -12 56 -29 79 -42 58z"/>
<path d="M780 247 c0 -2 -9 -53 -20 -113 -11 -60 -20 -115 -20 -121 0 -10 54
-13 238 -13 l237 1 -120 59 c-66 32 -164 88 -217 124 -54 36 -98 64 -98 63z"/>
<path d="M7744 117 c-33 -29 -78 -66 -100 -84 l-39 -32 142 0 142 -1 -16 38
c-18 43 -62 132 -66 132 -1 0 -29 -24 -63 -53z"/>
<path d="M3018 3 c39 -2 105 -2 145 0 39 1 7 3 -73 3 -80 0 -112 -2 -72 -3z"/>
</g>
</svg>
