<?xml version="1.0" standalone="no"?>
<!DOCTYPE svg PUBLIC "-//W3C//DTD SVG 20010904//EN"
 "http://www.w3.org/TR/2001/REC-SVG-20010904/DTD/svg10.dtd">
<svg version="1.0" xmlns="http://www.w3.org/2000/svg"
 width="559.000000pt" height="373.000000pt" viewBox="0 0 559.000000 373.000000"
 preserveAspectRatio="xMidYMid meet">

<g transform="translate(0.000000,373.000000) scale(0.100000,-0.100000)"
fill="#000000" stroke="none">
<path d="M0 1865 l0 -1865 68 0 c65 0 69 2 83 28 7 15 31 48 52 74 66 82 131
86 232 14 47 -34 72 -38 61 -11 -8 21 21 131 49 186 71 140 225 212 341 160
39 -18 84 -66 84 -90 0 -22 28 -22 61 -2 19 12 37 21 42 21 4 0 7 -85 7 -190
l0 -190 35 0 35 0 2 103 c1 56 2 129 2 162 l1 60 38 3 c28 2 37 0 37 -12 0 -9
-7 -16 -15 -16 -12 0 -15 -14 -15 -69 0 -40 5 -73 11 -77 16 -10 243 -4 253 6
13 13 66 13 66 -1 0 -5 4 -7 10 -4 5 3 10 34 10 68 0 50 -4 66 -20 79 -11 10
-22 13 -25 8 -9 -15 -252 -13 -261 2 -4 6 -2 14 4 16 8 2 9 10 3 20 -5 9 -8
31 -7 47 l1 30 114 3 c94 2 120 5 145 22 69 45 146 71 146 51 0 -4 -11 -13
-25 -19 -14 -6 -25 -18 -25 -27 0 -21 10 -19 53 14 29 22 76 38 191 67 148 36
155 37 180 21 17 -11 26 -26 26 -43 0 -28 -25 -80 -51 -104 -9 -8 -22 -26 -29
-40 -7 -14 -42 -62 -77 -108 -62 -80 -64 -85 -58 -126 6 -37 12 -46 42 -60 32
-15 35 -20 29 -46 l-5 -30 69 0 70 0 0 63 c0 65 16 99 70 149 17 16 20 31 20
100 0 80 0 80 39 119 l39 39 86 0 86 0 -1 -50 c-2 -56 -11 -56 -39 1 -16 29
-26 39 -45 39 -34 0 -32 -19 11 -99 20 -36 42 -84 49 -105 l14 -39 -40 -38
c-40 -37 -43 -47 -33 -86 5 -17 15 -23 43 -25 l36 -3 -28 -25 c-16 -14 -38
-28 -50 -32 -13 -4 2 -6 35 -4 61 3 90 22 104 70 7 23 43 66 56 66 10 0 11
-61 1 -85 -3 -10 -24 -26 -47 -36 l-41 -19 160 1 160 0 -37 19 c-66 35 -96
119 -67 183 12 27 32 40 93 60 74 25 74 74 0 91 -102 22 -144 63 -152 146 -4
46 -2 52 31 85 l35 35 173 0 c281 0 272 11 326 -398 17 -127 17 -133 -1 -166
-10 -19 -28 -39 -39 -44 -16 -8 21 -11 141 -11 l164 -1 -7 50 -7 50 30 0 c21
0 37 -8 51 -27 12 -14 24 -23 28 -19 13 13 -42 56 -79 62 -53 9 -61 39 -20 75
29 26 87 49 124 49 9 0 23 8 30 18 21 30 53 42 105 41 l48 -1 -54 -8 c-51 -8
-92 -32 -78 -46 3 -3 14 1 23 10 12 12 30 16 62 14 l45 -3 1 -48 c1 -46 0 -48
-34 -57 -19 -6 -43 -10 -52 -10 -18 0 -34 -18 -24 -27 7 -7 76 12 123 33 18 8
43 12 55 10 74 -15 78 -17 78 -35 0 -10 7 -21 15 -25 8 -3 15 -16 15 -30 0
-18 -4 -23 -18 -19 -11 2 -45 -3 -77 -13 -33 -9 -91 -22 -129 -29 -60 -11 86
-13 937 -14 l1007 -1 0 1865 0 1865 -2795 0 -2795 0 0 -1865z m3368 441 c52
-27 103 -73 129 -118 13 -21 25 -28 50 -28 17 0 35 -6 40 -12 4 -7 8 -52 9
-100 2 -107 18 -162 45 -155 10 3 19 0 19 -6 0 -6 3 -8 6 -4 10 10 133 -125
139 -154 4 -16 12 -32 18 -36 7 -5 21 -26 32 -48 11 -22 24 -43 28 -46 4 -3 9
-18 10 -33 1 -15 9 -31 17 -36 8 -5 11 -12 8 -15 -7 -7 -65 31 -130 86 -42 34
-48 25 -23 -34 8 -20 15 -41 15 -46 0 -17 -61 -81 -92 -97 -26 -14 -30 -13
-52 9 -14 14 -40 27 -58 31 -27 5 -38 14 -52 43 l-17 37 67 61 c47 42 64 64
55 69 -7 5 -31 -10 -64 -41 -51 -47 -52 -47 -55 -23 -2 14 -8 38 -14 53 -9 24
-8 31 12 52 12 13 33 26 46 29 24 6 24 9 19 69 -4 34 -7 118 -8 187 -2 118 -3
125 -22 125 -18 0 -20 -6 -17 -48 5 -57 -12 -133 -37 -165 -16 -22 -24 -23
-127 -23 -158 1 -268 -32 -327 -96 -17 -19 -16 -21 3 -46 11 -14 17 -32 14
-40 -3 -8 -1 -18 5 -21 6 -4 -7 -22 -29 -42 -62 -56 -82 -94 -70 -135 6 -19
10 -44 10 -56 0 -21 -4 -23 -60 -23 -81 0 -120 -18 -187 -87 l-56 -58 34 -3
c46 -5 55 -15 63 -68 8 -62 -13 -108 -77 -168 -31 -29 -52 -57 -52 -70 l0 -21
-317 4 -317 4 -5 -24 c-3 -13 -7 -58 -9 -100 -4 -85 -37 -159 -106 -239 l-38
-44 -54 13 c-88 22 -198 71 -219 98 -22 28 -26 64 -10 94 10 17 7 19 -19 19
-16 0 -62 -13 -103 -29 -40 -16 -100 -31 -133 -34 -59 -6 -59 -6 -97 35 -48
52 -54 72 -31 106 10 15 20 36 23 47 5 16 16 21 54 23 32 2 46 7 42 15 -65
148 -69 180 -31 225 21 25 25 40 25 93 0 64 25 129 50 129 12 0 13 -9 11 -75
l-2 -50 30 50 c39 65 77 105 101 105 29 0 25 -24 -15 -97 l-35 -63 25 6 c21 5
32 -1 61 -32 41 -43 79 -99 88 -130 6 -20 4 -20 -54 -12 -34 4 -69 12 -79 18
-21 11 -31 4 -31 -21 0 -12 6 -16 20 -12 10 3 57 0 103 -7 l85 -12 5 -41 c7
-49 -12 -82 -61 -106 -42 -21 -43 -55 -2 -73 20 -8 33 -23 38 -42 6 -21 17
-33 37 -39 17 -6 41 -18 54 -28 25 -20 61 -25 61 -10 0 5 -13 12 -30 16 -17 4
-30 13 -30 20 0 44 28 127 71 212 l50 98 -41 13 c-43 15 -82 67 -95 129 -11
54 39 121 113 152 30 13 30 14 37 107 l7 93 30 -15 c47 -24 59 -16 79 56 20
72 23 90 11 90 -4 0 -16 -28 -26 -62 -11 -35 -21 -66 -23 -69 -5 -11 -98 39
-126 69 l-28 29 43 53 c24 29 47 58 52 65 6 8 5 33 -4 68 -26 109 -2 127 160
127 66 0 111 4 115 11 17 26 95 32 95 7 0 -23 31 -38 79 -38 28 0 51 4 51 9 0
5 7 12 16 15 8 3 12 2 9 -4 -3 -6 1 -7 9 -4 16 6 19 45 17 183 0 24 3 49 7 55
4 6 7 20 7 31 0 13 8 21 23 23 12 2 22 8 22 14 0 7 11 1 24 -11 23 -21 31 -23
93 -17 88 8 89 8 149 0 43 -5 52 -10 63 -35 14 -32 45 -46 66 -29 11 9 15 9
15 1 0 -22 15 -10 45 33 16 24 33 42 36 40 3 -1 22 8 41 21 20 13 56 29 80 35
42 11 47 10 95 -20 43 -27 56 -31 80 -23 20 7 29 17 31 36 4 33 10 33 70 3z
m-1041 -342 c-3 -3 -12 -4 -19 -1 -8 3 -5 6 6 6 11 1 17 -2 13 -5z m1067 -345
c10 -16 15 -37 12 -45 -9 -24 -43 1 -48 36 -7 50 9 54 36 9z m-86 -142 c3 -28
5 -28 45 -21 72 14 111 11 115 -8 2 -12 -6 -19 -32 -24 -47 -8 -46 -24 0 -22
34 1 64 -19 64 -43 0 -4 -40 -7 -89 -6 -80 2 -113 -4 -100 -17 3 -3 46 -6 96
-7 100 -2 110 -5 113 -34 5 -41 2 -43 -67 -41 -67 1 -68 1 -109 -41 -23 -24
-46 -43 -51 -43 -11 0 -69 94 -84 138 -10 29 -9 40 9 75 11 23 25 61 32 85 9
36 15 43 33 40 16 -2 23 -11 25 -31z m357 -108 c60 -40 173 -99 191 -99 8 0
14 -6 14 -12 0 -9 3 -8 10 2 13 21 23 5 11 -18 -6 -12 -11 -45 -11 -74 0 -30
-5 -59 -12 -66 -9 -9 -9 -12 1 -12 11 0 11 -3 1 -15 -7 -8 -20 -15 -30 -15
-17 0 -44 -25 -51 -47 -6 -17 -17 -8 -82 70 -55 66 -57 70 -57 125 0 52 -15
129 -35 175 -10 24 -3 22 50 -14z m-666 -30 c15 -42 15 -42 -14 -35 -34 9 -61
-7 -73 -44 -13 -36 -38 -48 -58 -29 -11 12 -11 21 -2 52 15 50 60 87 103 87
28 0 35 -5 44 -31z m29 -174 c4 -42 -18 -70 -47 -60 -20 6 -23 12 -17 43 9 59
59 72 64 17z m116 -142 c4 -16 9 -36 12 -45 4 -15 -1 -18 -35 -18 -36 0 -40 3
-46 31 -4 17 -5 31 -3 33 7 5 53 25 59 25 4 1 10 -11 13 -26z m-2784 -124 c0
-24 18 -60 37 -74 12 -9 11 -14 -6 -29 -11 -10 -23 -34 -27 -52 -7 -38 -24
-36 -24 2 0 13 -9 33 -20 44 -11 11 -20 22 -20 25 0 3 9 15 20 27 11 12 20 34
20 50 0 15 5 28 10 28 6 0 10 -9 10 -21z m2060 -607 c0 -18 -4 -23 -16 -18 -9
3 -18 6 -20 6 -2 0 -4 14 -4 30 0 28 2 29 20 18 11 -7 20 -23 20 -36z m145 0
c-3 -8 -5 -18 -5 -23 0 -10 -113 -13 -122 -3 -3 3 -4 13 -1 23 4 14 15 17 69
17 49 -1 63 -4 59 -14z m-1117 -59 l-3 -58 -105 2 -105 1 -3 56 -3 56 111 0
111 0 -3 -57z"/>
<path d="M3335 2206 c-37 -16 -82 -68 -91 -103 -14 -55 70 -118 141 -107 56 8
79 32 66 67 -8 21 -17 27 -40 27 -23 0 -29 4 -25 15 4 8 17 18 30 21 19 5 24
13 24 40 0 51 -43 67 -105 40z"/>
<path d="M2996 2094 c-3 -9 -6 -31 -6 -50 0 -27 4 -34 20 -34 15 0 20 7 20 24
0 14 -5 28 -11 32 -8 5 -6 10 5 16 9 5 14 13 11 19 -10 14 -32 11 -39 -7z"/>
<path d="M2150 1829 c-25 -4 -69 -8 -97 -8 -29 -1 -53 -5 -53 -10 0 -9 121
-31 174 -31 31 0 36 3 36 24 0 32 -5 34 -60 25z"/>
<path d="M2837 1803 c-4 -3 -7 -15 -7 -25 0 -18 -1 -18 -16 -4 -8 9 -24 16
-35 16 -29 0 -24 -35 9 -58 40 -28 122 -65 129 -59 3 4 -6 20 -21 37 -17 21
-26 43 -26 66 0 32 -16 45 -33 27z"/>
<path d="M2120 1741 c-30 -8 -38 -42 -15 -65 24 -23 35 -20 35 12 0 15 5 33
11 39 15 15 0 21 -31 14z"/>
<path d="M2200 1717 c0 -23 17 -47 33 -47 5 0 7 10 6 23 -2 12 0 28 4 35 6 8
1 12 -17 12 -20 0 -26 -5 -26 -23z"/>
<path d="M1985 1720 c3 -5 10 -10 16 -10 5 0 9 5 9 10 0 6 -7 10 -16 10 -8 0
-12 -4 -9 -10z"/>
<path d="M2780 1645 c-18 -19 -21 -28 -12 -37 9 -9 16 -7 32 7 11 10 20 24 20
31 0 24 -17 23 -40 -1z"/>
<path d="M2126 1572 c-3 -5 6 -19 19 -30 l25 -22 0 30 c0 23 -5 30 -19 30 -11
0 -22 -4 -25 -8z"/>
<path d="M2198 1573 c15 -3 22 -11 22 -29 0 -13 -6 -24 -12 -24 -7 0 -2 -7 10
-16 12 -8 26 -13 31 -9 5 3 12 1 16 -5 4 -6 12 -7 18 -3 6 4 26 6 44 5 27 -2
35 2 45 22 13 31 0 51 -38 59 -19 3 -24 1 -19 -11 5 -15 -11 -42 -26 -42 -15
0 -22 42 -8 51 9 5 -9 8 -46 7 -33 0 -50 -3 -37 -5z"/>
<path d="M2690 1562 c0 -11 49 -26 58 -17 8 7 0 12 -31 20 -16 4 -27 3 -27 -3z"/>
<path d="M3680 1515 c0 -17 46 -42 56 -32 7 7 -35 46 -48 47 -5 0 -8 -7 -8
-15z"/>
<path d="M2303 1450 c-26 -10 -32 -50 -8 -50 8 0 15 5 15 10 0 6 11 15 25 20
14 5 25 14 25 20 0 12 -27 12 -57 0z"/>
<path d="M2352 1389 c-40 -29 -42 -30 -67 -13 -14 9 -25 12 -25 8 0 -5 -5 -1
-11 9 -5 9 -17 17 -26 17 -11 0 -13 -5 -8 -17 15 -34 29 -92 24 -97 -3 -3 -21
-6 -42 -8 -43 -2 -48 -13 -68 -133 -14 -88 -16 -85 66 -110 28 -9 56 -19 63
-22 10 -4 13 3 12 23 -3 48 -1 54 25 64 41 16 34 62 -15 101 -41 33 -52 59
-25 59 22 0 92 53 126 96 49 61 37 71 -29 23z"/>
<path d="M2497 1328 c-9 -21 -10 -34 -4 -37 13 -5 37 28 37 51 0 29 -19 21
-33 -14z"/>
<path d="M1785 1298 c-49 -25 -48 -24 -41 -37 7 -11 116 37 116 51 0 14 -34 8
-75 -14z"/>
<path d="M1553 1123 c9 -9 19 -14 23 -11 10 10 -6 28 -24 28 -15 0 -15 -1 1
-17z"/>
<path d="M1990 1001 c0 -33 14 -42 24 -15 3 8 -1 22 -9 30 -13 14 -15 12 -15
-15z"/>
<path d="M1933 453 c-41 -23 -60 -52 -27 -39 9 3 27 6 41 6 15 0 23 3 20 7 -4
3 2 12 13 20 22 16 27 34 8 32 -7 -1 -32 -12 -55 -26z"/>
<path d="M1850 400 c-22 -13 -180 -60 -202 -60 -10 0 -18 -4 -18 -10 0 -5 7
-10 15 -10 8 0 15 -9 15 -20 0 -16 -7 -20 -35 -20 -47 0 -45 -18 3 -23 l37 -4
-37 -1 c-21 -1 -38 -6 -38 -12 0 -5 17 -11 38 -12 l37 -1 -35 -4 c-53 -7 -62
-23 -12 -23 l42 0 0 -100 0 -100 98 1 c53 0 90 3 82 6 -31 12 -60 47 -86 109
-16 38 -33 64 -42 64 -10 0 -4 11 17 33 17 17 55 64 83 102 28 39 55 76 60 83
12 14 0 15 -22 2z"/>
<path d="M2933 203 c-19 -7 -16 -31 6 -42 21 -12 31 -5 31 20 0 18 -18 29 -37
22z"/>
<path d="M1509 148 c0 -2 -3 -36 -6 -75 -3 -51 -1 -73 7 -73 7 0 10 24 9 75
-2 62 -5 87 -10 73z"/>
<path d="M2990 139 c0 -16 29 -41 40 -34 5 3 10 15 10 26 0 14 -7 19 -25 19
-14 0 -25 -5 -25 -11z"/>
<path d="M1233 50 c0 -30 2 -43 4 -28 2 16 2 40 0 55 -2 16 -4 3 -4 -27z"/>
</g>
</svg>
